<?xml version="1.0" standalone="no"?>
<!DOCTYPE svg PUBLIC "-//W3C//DTD SVG 20010904//EN"
 "http://www.w3.org/TR/2001/REC-SVG-20010904/DTD/svg10.dtd">
<svg version="1.0" xmlns="http://www.w3.org/2000/svg"
 width="2049.000000pt" height="2049.000000pt" viewBox="0 0 2049.000000 2049.000000"
 preserveAspectRatio="xMidYMid meet">
<metadata>
Created by potrace 1.16, written by Peter Selinger 2001-2019
</metadata>
<g transform="translate(0.000000,2049.000000) scale(0.100000,-0.100000)"
fill="#000000" stroke="none">
<path d="M9845 20480 c-1884 -75 -3688 -660 -5260 -1705 -585 -389 -1058 -778
-1576 -1295 -519 -518 -911 -997 -1304 -1590 -1296 -1959 -1874 -4261 -1659
-6610 190 -2085 1020 -4063 2378 -5670 390 -461 922 -981 1389 -1358 1587
-1281 3471 -2048 5496 -2237 239 -22 1663 -22 1902 0 697 65 1377 198 2026
396 1585 482 3012 1329 4201 2493 1274 1248 2197 2796 2688 4506 167 583 280
1182 344 1819 18 186 20 272 20 1003 0 777 -1 805 -25 1041 -236 2318 -1240
4462 -2870 6126 -819 836 -1720 1492 -2765 2014 -1238 619 -2533 966 -3944
1057 -222 14 -803 20 -1041 10z m745 -4327 c140 -82 374 -218 520 -303 146
-84 301 -174 345 -200 44 -26 184 -107 310 -180 240 -139 595 -345 750 -435
156 -91 524 -305 680 -394 160 -92 183 -107 203 -132 18 -23 18 -3570 0 -3599
-14 -22 -28 -30 -673 -397 -555 -315 -568 -322 -637 -352 -84 -37 -149 -20
-177 46 -8 21 -11 227 -9 781 l3 754 33 29 c46 41 111 41 153 0 l29 -29 1
-639 c1 -351 1 -644 0 -650 -1 -7 4 -13 10 -13 12 0 460 252 879 494 l175 102
3 1602 c1 1088 -1 1602 -8 1602 -11 0 -125 -65 -455 -262 -115 -69 -248 -147
-295 -175 -47 -27 -353 -209 -680 -403 -327 -194 -656 -389 -730 -433 -131
-77 -190 -112 -482 -286 l-138 -82 -2 -1715 -3 -1716 -33 -29 c-45 -41 -96
-39 -170 4 -31 19 -300 177 -597 352 -297 175 -641 377 -765 450 -124 72 -299
176 -390 230 -91 54 -282 167 -425 250 -773 453 -849 500 -867 536 -17 32 -18
170 -18 2450 l0 2416 23 34 c42 63 63 63 317 8 356 -77 953 -207 1220 -264
l245 -53 285 163 c847 483 997 569 1020 582 47 26 88 9 350 -144z m4788 -8190
l-3 -38 -5102 -3 -5103 -2 0 40 0 40 5106 0 5105 0 -3 -37z m-7145 -1346 c281
-87 469 -258 558 -507 23 -65 24 -67 27 -646 3 -654 2 -667 -67 -809 -90 -185
-268 -335 -481 -403 -139 -45 -171 -47 -685 -47 l-490 0 -3 1214 c-1 726 2
1218 7 1225 7 8 155 10 528 6 l518 -6 88 -27z m1421 1 c32 -43 50 -117 42
-175 -3 -26 -20 -77 -37 -114 -35 -75 -34 -91 12 -153 36 -50 37 -79 3 -105
-36 -29 -57 -26 -99 11 -87 76 -104 184 -47 300 37 78 39 104 12 159 -32 61
-7 109 55 109 27 0 39 -7 59 -32z m327 19 c9 -7 26 -32 39 -56 31 -62 26 -163
-13 -242 -35 -73 -35 -107 3 -154 35 -44 39 -86 10 -115 -44 -44 -109 -9 -154
82 -38 75 -36 147 6 224 35 67 41 127 15 165 -24 33 -22 75 5 93 27 19 67 20
89 3z m2287 -99 l-3 -113 -595 -5 -595 -5 0 -365 0 -365 398 -3 397 -2 0 -115
0 -115 -397 -2 -398 -3 -2 -610 c-2 -335 -3 -616 -3 -623 0 -10 -28 -12 -122
-10 l-123 3 -3 1223 -2 1222 725 0 726 0 -3 -112z m737 -138 l-125 -250 -110
0 c-61 0 -110 4 -110 9 0 8 48 137 151 404 l33 87 143 0 143 0 -125 -250z
m-3025 -411 c217 -48 392 -200 453 -394 21 -68 22 -84 22 -495 0 -411 -1 -427
-22 -495 -78 -247 -320 -408 -618 -409 -207 -1 -360 57 -486 183 -82 81 -119
144 -147 244 -15 54 -17 114 -17 477 0 364 3 423 18 479 74 270 346 443 667
425 47 -3 105 -10 130 -15z m3028 -10 c145 -37 275 -125 351 -239 141 -212
122 -457 -48 -626 -75 -74 -146 -118 -258 -157 -88 -31 -89 -31 -330 -35
l-243 -4 0 116 0 116 203 0 c254 0 330 19 425 105 61 55 87 117 86 205 -1 133
-59 220 -183 279 -53 24 -65 26 -206 26 -141 0 -153 -2 -205 -26 -75 -35 -116
-72 -148 -133 l-27 -51 0 -440 c0 -409 1 -444 19 -489 26 -69 84 -128 159
-162 59 -27 69 -29 197 -29 163 0 219 18 304 96 30 27 57 49 61 49 20 0 195
-107 195 -120 0 -8 -31 -44 -68 -81 -124 -121 -297 -185 -497 -182 -302 3
-531 153 -608 398 -21 68 -22 84 -22 500 0 339 3 441 14 480 66 236 262 392
531 425 86 11 208 2 298 -21z"/>
<path d="M10235 16036 c-83 -49 -901 -514 -935 -531 -32 -16 -33 -19 -15 -26
11 -5 128 -32 260 -60 132 -28 292 -62 355 -75 63 -14 187 -41 275 -59 88 -19
223 -48 300 -65 77 -17 298 -65 490 -106 565 -122 779 -168 1150 -249 192 -41
353 -74 357 -73 10 4 83 -39 -1202 706 -157 91 -391 227 -520 302 -400 233
-449 260 -462 260 -7 -1 -31 -11 -53 -24z"/>
<path d="M7360 15110 l0 -550 2538 0 c1395 0 2530 4 2522 9 -8 5 -33 12 -55
15 -37 7 -508 108 -1145 246 -829 179 -1534 332 -2010 434 -140 30 -412 89
-605 131 -192 41 -456 98 -585 125 -129 28 -326 71 -437 95 -112 25 -207 45
-213 45 -7 0 -10 -182 -10 -550z"/>
<path d="M7360 12706 l0 -1634 143 -85 c131 -77 454 -268 1242 -732 533 -314
1216 -716 1320 -777 l100 -58 6 307 c4 170 7 910 8 1645 l1 1337 23 24 c12 14
110 77 217 140 183 108 972 575 1625 962 249 148 458 271 758 449 38 22 70 43
73 48 3 4 -1237 8 -2755 8 l-2761 0 0 -1634z"/>
<path d="M7352 5428 l3 -993 355 0 c400 1 420 3 567 75 148 73 259 216 283
365 6 33 10 282 10 560 0 546 -4 588 -57 688 -41 77 -155 186 -235 225 -137
66 -181 72 -575 72 l-353 0 2 -992z"/>
<path d="M9667 5760 c-92 -23 -175 -88 -214 -168 l-28 -57 0 -430 c0 -394 2
-434 18 -475 59 -144 185 -207 398 -198 87 3 114 8 164 31 73 34 128 85 163
152 l27 50 3 416 c3 407 2 417 -19 475 -29 77 -92 144 -172 180 -56 26 -74 29
-182 31 -66 1 -137 -2 -158 -7z m283 -76 c172 -51 223 -183 108 -274 -67 -52
-115 -65 -248 -65 -114 0 -130 2 -180 26 -185 88 -169 241 33 310 68 24 213
25 287 3z"/>
</g>
</svg>
