<?xml version="1.0" standalone="no"?>
<!DOCTYPE svg PUBLIC "-//W3C//DTD SVG 20010904//EN"
 "http://www.w3.org/TR/2001/REC-SVG-20010904/DTD/svg10.dtd">
<svg version="1.0" xmlns="http://www.w3.org/2000/svg"
 width="500.000000pt" height="500.000000pt" viewBox="0 0 500.000000 500.000000"
 preserveAspectRatio="xMidYMid meet">

<g transform="translate(0.000000,500.000000) scale(0.100000,-0.100000)"
fill="#000000" stroke="none">
<path d="M2255 4979 c-435 -31 -909 -220 -1295 -518 -109 -84 -337 -312 -421
-421 -263 -341 -428 -716 -498 -1130 -55 -327 -49 -593 20 -927 164 -791 714
-1463 1459 -1782 322 -137 637 -201 993 -201 571 0 1119 196 1567 561 109 89
289 270 377 379 349 434 543 992 543 1561 0 662 -261 1289 -729 1759 -403 404
-939 661 -1501 720 -108 11 -352 11 -515 -1z m637 -1215 c205 -119 376 -222
380 -228 10 -14 10 -857 0 -873 -13 -21 -327 -194 -347 -191 -19 3 -20 11 -20
203 l0 200 25 0 25 0 3 -157 c3 -158 7 -177 38 -149 5 5 32 21 59 36 28 15 74
41 102 58 l53 31 2 388 c2 213 1 388 -2 388 -3 0 -21 -10 -40 -22 -38 -23
-517 -311 -587 -352 l-43 -25 -2 -423 c-3 -397 -4 -423 -21 -426 -16 -3 -265
137 -482 271 -44 28 -128 79 -187 114 l-108 64 0 603 c0 497 2 605 13 609 8 3
43 -1 78 -8 35 -8 128 -28 207 -44 l143 -31 57 30 c31 16 102 56 157 89 55 32
105 59 112 60 7 1 180 -96 385 -215z m866 -1821 c3 -10 -251 -13 -1247 -13
-1107 0 -1251 2 -1251 15 0 13 143 15 1247 13 986 -2 1247 -6 1251 -15z
m-1712 -343 c23 -10 54 -35 70 -56 l29 -37 0 -182 0 -182 -27 -35 c-15 -20
-49 -46 -75 -59 -42 -20 -63 -23 -178 -24 l-130 0 -3 301 -2 301 137 -4 c101
-4 149 -10 179 -23z m319 -1 c4 -11 1 -34 -6 -50 -9 -23 -9 -33 0 -42 17 -17
13 -27 -9 -27 -25 0 -41 37 -29 68 5 13 6 34 3 48 -5 19 -2 24 14 24 12 0 23
-9 27 -21z m83 -11 c2 -15 -2 -36 -7 -47 -7 -13 -8 -22 -1 -26 15 -9 12 -35
-4 -35 -27 0 -37 26 -30 84 5 45 10 56 23 54 9 -2 17 -15 19 -30z m552 7 l0
-25 -150 0 -150 0 0 -90 0 -89 98 -3 97 -3 3 -27 3 -28 -100 0 -101 0 0 -156
0 -155 -27 3 -28 3 -3 298 -2 297 180 0 180 0 0 -25z m200 20 c0 -2 -12 -29
-27 -60 -23 -47 -31 -55 -55 -55 -15 0 -28 2 -28 5 0 2 9 29 21 60 19 52 22
55 55 55 19 0 34 -2 34 -5z m-719 -171 c56 -29 69 -65 69 -199 0 -101 -3 -125
-20 -152 -52 -86 -196 -93 -265 -12 -24 29 -25 36 -25 165 0 132 0 134 28 164
51 58 141 72 213 34z m730 0 c68 -35 91 -137 44 -188 -35 -38 -85 -56 -155
-56 -61 0 -61 0 -58 28 3 26 6 27 71 32 57 4 72 9 88 29 44 54 2 121 -76 121
-33 0 -81 -24 -89 -45 -3 -9 -6 -65 -6 -125 0 -127 10 -148 77 -157 32 -4 51
0 77 15 34 20 36 20 57 3 l22 -17 -28 -22 c-79 -62 -212 -42 -252 38 -18 36
-17 253 1 289 38 73 143 99 227 55z"/>
<path d="M2388 3852 c-64 -37 -114 -70 -110 -73 4 -4 86 -24 182 -44 96 -20
265 -56 375 -80 109 -24 200 -43 201 -42 1 1 -68 43 -153 92 -85 50 -203 118
-261 152 -59 34 -109 62 -112 62 -3 0 -58 -30 -122 -67z"/>
<path d="M1800 3686 l0 -123 83 -6 c132 -11 1147 -7 1110 4 -81 23 -1150 249
-1180 249 -10 0 -13 -31 -13 -124z"/>
<path d="M1807 3493 c-4 -3 -7 -183 -7 -399 l0 -393 83 -49 c45 -26 125 -73
177 -102 52 -29 165 -95 252 -147 86 -51 159 -93 162 -93 3 0 6 177 6 393 0
215 4 397 8 403 7 11 210 134 452 274 80 46 159 91 175 101 29 18 12 19 -636
19 -366 0 -669 -3 -672 -7z"/>
<path d="M1790 1325 l0 -245 90 0 c104 0 144 13 183 59 27 32 27 34 27 186 l0
154 -31 35 c-38 44 -79 56 -186 56 l-83 0 0 -245z"/>
<path d="M2345 1399 c-40 -23 -45 -39 -45 -156 0 -108 1 -115 25 -138 38 -39
117 -31 152 14 8 10 12 56 13 127 0 104 -1 112 -24 133 -28 26 -92 37 -121 20z
m100 -21 c48 -22 26 -64 -39 -75 -63 -10 -116 49 -68 76 23 14 75 14 107 -1z"/>
</g>
</svg>
